# xmcd
#
# Track frame offsets: 
#        150
#        17540
#        57562
#        83092
#        95497
#        117732
#        148935
#        177520
#        198522
#        218295
#
# Disc length: 3205 seconds
#
# Revision: 2
# Processed by: cddbd v1.5.2PL0 Copyright (c) Steve Scherf et al.
# Submitted via: ExactAudioCopy v0.95b4
#
DISCID=8f0c830a
DTITLE=Nina Simone - Gifted And Black
DYEAR=1900
DGENRE=
TTITLE0=Don't Let Me Be Misunderstood
TTITLE1=Four Women
TTITLE2=After You've Gone
TTITLE3=Ain't Not Use
TTITLE4=The Assignment Song
TTITLE5=The House Of The Rising Sun
TTITLE6=To Be Young, Gifted And Black
TTITLE7=Ain't Got No - I Got Life
TTITLE8=No Opportunity Necessary, No Experience Needed
TTITLE9=Gin House Blues
EXTD=
EXTT0=
EXTT1=
EXTT2=
EXTT3=
EXTT4=
EXTT5=
EXTT6=
EXTT7=
EXTT8=
EXTT9=
PLAYORDER=
